<svg width="34" height="34" viewBox="0 0 34 34" fill="none" xmlns="http://www.w3.org/2000/svg">
<path d="M30.0945 10.3304V10.847L29.5668 24.2765C29.5367 25.5455 29.0571 26.7647 28.2101 27.7257C27.3631 28.6868 26.2013 29.3299 24.9235 29.5451L26.9285 32.9541C28.6572 32.7153 30.2464 31.893 31.4218 30.6293C32.5971 29.3656 33.2847 27.7398 33.3659 26.0327L33.9991 8.47096V7.95444L30.0945 10.3304Z" fill="white"/>
<path d="M24.3967 29.6484L11.733 30.3715C10.2661 30.4568 8.8239 29.9737 7.71804 29.0265C6.61219 28.0793 5.93154 26.7441 5.82323 25.3096L4.66239 10.4337C4.56782 9.65122 4.65028 8.85791 4.90392 8.11007C5.15756 7.36222 5.57617 6.67816 6.13006 6.10638C6.68395 5.5346 7.35956 5.08911 8.10899 4.80149C8.85841 4.51387 9.66331 4.39117 10.4666 4.44209L24.8188 5.06192C26.2028 5.16063 27.5025 5.7503 28.4739 6.7203C29.4454 7.69029 30.0219 8.97395 30.0954 10.3304L34 7.95444C33.9736 6.11716 33.2234 4.36085 31.906 3.05198C30.5886 1.74312 28.8057 0.982817 26.9294 0.92974L7.82832 0H7.19513C6.19207 0.0390264 5.20726 0.274961 4.29916 0.693795C3.39106 1.11263 2.57819 1.70582 1.90883 2.43814C1.23947 3.17047 0.727263 4.02699 0.402625 4.95686C0.0779867 5.88672 -0.0524628 6.87096 0.0190227 7.85113L1.60199 27.2724C1.73755 29.1729 2.63385 30.9444 4.09612 32.2017C5.55839 33.459 7.46846 34.1006 9.41128 33.9871L26.4018 32.9541H26.9294L24.9243 29.5451L24.3967 29.6484Z" fill="white"/>
<path d="M14.1593 13.0163C15.2667 13.0163 16.1644 12.1376 16.1644 11.0536C16.1644 9.96954 15.2667 9.09077 14.1593 9.09077C13.0519 9.09077 12.1542 9.96954 12.1542 11.0536C12.1542 12.1376 13.0519 13.0163 14.1593 13.0163Z" fill="white"/>
<path d="M21.1243 13.0163C22.2317 13.0163 23.1294 12.1376 23.1294 11.0536C23.1294 9.96954 22.2317 9.09077 21.1243 9.09077C20.0169 9.09077 19.1192 9.96954 19.1192 11.0536C19.1192 12.1376 20.0169 13.0163 21.1243 13.0163Z" fill="white"/>
<path d="M14.1593 19.1113C15.2667 19.1113 16.1644 18.2325 16.1644 17.1485C16.1644 16.0645 15.2667 15.1857 14.1593 15.1857C13.0519 15.1857 12.1542 16.0645 12.1542 17.1485C12.1542 18.2325 13.0519 19.1113 14.1593 19.1113Z" fill="white"/>
<path d="M21.1243 19.1113C22.2317 19.1113 23.1294 18.2325 23.1294 17.1485C23.1294 16.0645 22.2317 15.1857 21.1243 15.1857C20.0169 15.1857 19.1192 16.0645 19.1192 17.1485C19.1192 18.2325 20.0169 19.1113 21.1243 19.1113Z" fill="white"/>
<path d="M14.1593 25.2063C15.2667 25.2063 16.1644 24.3275 16.1644 23.2435C16.1644 22.1595 15.2667 21.2807 14.1593 21.2807C13.0519 21.2807 12.1542 22.1595 12.1542 23.2435C12.1542 24.3275 13.0519 25.2063 14.1593 25.2063Z" fill="white"/>
<path d="M21.1243 25.2063C22.2317 25.2063 23.1294 24.3275 23.1294 23.2435C23.1294 22.1595 22.2317 21.2807 21.1243 21.2807C20.0169 21.2807 19.1192 22.1595 19.1192 23.2435C19.1192 24.3275 20.0169 25.2063 21.1243 25.2063Z" fill="white"/>
</svg>
