<svg width="353" height="199" viewBox="0 0 353 199" fill="none" xmlns="http://www.w3.org/2000/svg">
<path d="M349.885 0H3.11471C1.3945 0 0 1.11369 0 2.4875V196.512C0 197.886 1.3945 199 3.11471 199H349.885C351.605 199 353 197.886 353 196.512V2.4875C353 1.11369 351.605 0 349.885 0Z" fill="#E3E5E8"/>
<path d="M337.427 12.4375H15.5737V29.0208H337.427V12.4375Z" fill="#D5D8DD"/>
<path d="M337.427 33.1667H15.5737V91.2084H337.427V33.1667Z" fill="#D5D8DD"/>
<path d="M119.397 94.9586H15.5737V129.625H119.397V94.9586Z" fill="#D5D8DD"/>
<path d="M119.397 134.825H15.5737V137.425H119.397V134.825Z" fill="#D5D8DD"/>
<path d="M119.397 140.025H15.5737V142.625H119.397V140.025Z" fill="#D5D8DD"/>
<path d="M79.9443 145.225H15.5737V147.825H79.9443V145.225Z" fill="#D5D8DD"/>
<path d="M228.412 94.9586H124.588V129.625H228.412V94.9586Z" fill="#D5D8DD"/>
<path d="M228.412 134.825H124.588V137.425H228.412V134.825Z" fill="#D5D8DD"/>
<path d="M228.412 140.025H124.588V142.625H228.412V140.025Z" fill="#D5D8DD"/>
<path d="M188.959 145.225H124.588V147.825H188.959V145.225Z" fill="#D5D8DD"/>
<path d="M337.556 94.9586H233.733V129.625H337.556V94.9586Z" fill="#D5D8DD"/>
<path d="M337.556 134.825H233.733V137.425H337.556V134.825Z" fill="#D5D8DD"/>
<path d="M337.556 140.025H233.733V142.625H337.556V140.025Z" fill="#D5D8DD"/>
<path d="M297.974 145.225H233.603V147.825H297.974V145.225Z" fill="#D5D8DD"/>
<path d="M171.471 152.567H15.5737V187.392H171.471V152.567Z" fill="#D5D8DD"/>
<path d="M337.427 152.567H181.529V187.392H337.427V152.567Z" fill="#D5D8DD"/>
</svg>
